<mxfile host="Electron" modified="2024-05-17T04:41:32.057Z" agent="Mozilla/5.0 (Windows NT 10.0; Win64; x64) AppleWebKit/537.36 (KHTML, like Gecko) draw.io/22.1.2 Chrome/114.0.5735.289 Electron/25.9.4 Safari/537.36" etag="kmhajQ5ZTuoppgqsg2b0" version="22.1.2" type="device">
  <diagram name="Page-1" id="_bWqSBy47hbB_9vXA5Cb">
    <mxGraphModel dx="4001" dy="2940" grid="1" gridSize="10" guides="1" tooltips="1" connect="1" arrows="1" fold="1" page="1" pageScale="1" pageWidth="850" pageHeight="1100" math="0" shadow="0">
      <root>
        <mxCell id="0" />
        <mxCell id="1" parent="0" />
        <mxCell id="AFRiotALi2OwxYS_yEGo-1" value="" style="swimlane;startSize=0;labelBackgroundColor=none;strokeWidth=2;" vertex="1" parent="1">
          <mxGeometry x="-560" y="-20" width="1150" height="1710" as="geometry" />
        </mxCell>
        <mxCell id="AFRiotALi2OwxYS_yEGo-106" value="" style="rounded=0;whiteSpace=wrap;html=1;fillColor=none;strokeWidth=2;" vertex="1" parent="AFRiotALi2OwxYS_yEGo-1">
          <mxGeometry x="57.5" y="1390" width="490" height="280" as="geometry" />
        </mxCell>
        <mxCell id="AFRiotALi2OwxYS_yEGo-89" value="" style="rounded=0;whiteSpace=wrap;html=1;fillColor=none;strokeWidth=2;" vertex="1" parent="AFRiotALi2OwxYS_yEGo-1">
          <mxGeometry x="40" y="770" width="410" height="540" as="geometry" />
        </mxCell>
        <mxCell id="AFRiotALi2OwxYS_yEGo-70" value="" style="rounded=0;whiteSpace=wrap;html=1;fillColor=none;strokeWidth=2;" vertex="1" parent="AFRiotALi2OwxYS_yEGo-1">
          <mxGeometry x="475" y="70" width="630" height="610" as="geometry" />
        </mxCell>
        <mxCell id="AFRiotALi2OwxYS_yEGo-72" value="" style="rounded=0;whiteSpace=wrap;html=1;fillColor=none;strokeWidth=2;" vertex="1" parent="AFRiotALi2OwxYS_yEGo-1">
          <mxGeometry x="50" y="70" width="410" height="610" as="geometry" />
        </mxCell>
        <mxCell id="AFRiotALi2OwxYS_yEGo-71" value="" style="rounded=0;whiteSpace=wrap;html=1;fillColor=none;strokeWidth=2;" vertex="1" parent="AFRiotALi2OwxYS_yEGo-1">
          <mxGeometry x="475" y="770" width="615" height="540" as="geometry" />
        </mxCell>
        <mxCell id="AFRiotALi2OwxYS_yEGo-2" value="&lt;font style=&quot;font-size: 29px;&quot;&gt;Akses modul&lt;/font&gt;" style="ellipse;whiteSpace=wrap;html=1;labelBackgroundColor=none;" vertex="1" parent="AFRiotALi2OwxYS_yEGo-1">
          <mxGeometry x="125" y="920" width="240" height="120" as="geometry" />
        </mxCell>
        <mxCell id="AFRiotALi2OwxYS_yEGo-3" value="&lt;font style=&quot;font-size: 29px;&quot;&gt;Akses ujian&lt;/font&gt;" style="ellipse;whiteSpace=wrap;html=1;labelBackgroundColor=none;" vertex="1" parent="AFRiotALi2OwxYS_yEGo-1">
          <mxGeometry x="547.5" y="805" width="240" height="100" as="geometry" />
        </mxCell>
        <mxCell id="AFRiotALi2OwxYS_yEGo-4" value="&lt;font style=&quot;font-size: 29px;&quot;&gt;Akses mapel&lt;/font&gt;" style="ellipse;whiteSpace=wrap;html=1;labelBackgroundColor=none;" vertex="1" parent="AFRiotALi2OwxYS_yEGo-1">
          <mxGeometry x="95" y="250" width="280" height="120" as="geometry" />
        </mxCell>
        <mxCell id="AFRiotALi2OwxYS_yEGo-5" value="&lt;font style=&quot;font-size: 29px;&quot;&gt;Akses Nilai&lt;/font&gt;" style="ellipse;whiteSpace=wrap;html=1;labelBackgroundColor=none;" vertex="1" parent="AFRiotALi2OwxYS_yEGo-1">
          <mxGeometry x="502.5" y="960" width="230" height="100" as="geometry" />
        </mxCell>
        <mxCell id="AFRiotALi2OwxYS_yEGo-6" value="&lt;font style=&quot;font-size: 29px;&quot;&gt;Pembayaran&lt;/font&gt;" style="ellipse;whiteSpace=wrap;html=1;labelBackgroundColor=none;" vertex="1" parent="AFRiotALi2OwxYS_yEGo-1">
          <mxGeometry x="207.5" y="1480" width="180" height="100" as="geometry" />
        </mxCell>
        <mxCell id="AFRiotALi2OwxYS_yEGo-7" value="&lt;font style=&quot;font-size: 29px;&quot;&gt;Lupa password&lt;/font&gt;" style="ellipse;whiteSpace=wrap;html=1;labelBackgroundColor=none;" vertex="1" parent="AFRiotALi2OwxYS_yEGo-1">
          <mxGeometry x="802.5" y="250" width="250" height="110" as="geometry" />
        </mxCell>
        <mxCell id="AFRiotALi2OwxYS_yEGo-8" value="&lt;font style=&quot;font-size: 29px;&quot;&gt;Login&lt;/font&gt;" style="ellipse;whiteSpace=wrap;html=1;labelBackgroundColor=none;" vertex="1" parent="AFRiotALi2OwxYS_yEGo-1">
          <mxGeometry x="640" y="420" width="220" height="90" as="geometry" />
        </mxCell>
        <mxCell id="AFRiotALi2OwxYS_yEGo-9" value="&lt;font style=&quot;font-size: 29px;&quot;&gt;Sertifikat&lt;/font&gt;" style="ellipse;whiteSpace=wrap;html=1;labelBackgroundColor=none;" vertex="1" parent="AFRiotALi2OwxYS_yEGo-1">
          <mxGeometry x="520" y="1140" width="230" height="105" as="geometry" />
        </mxCell>
        <mxCell id="AFRiotALi2OwxYS_yEGo-10" value="&lt;font style=&quot;font-size: 29px;&quot;&gt;Register&lt;/font&gt;" style="ellipse;whiteSpace=wrap;html=1;labelBackgroundColor=none;" vertex="1" parent="AFRiotALi2OwxYS_yEGo-1">
          <mxGeometry x="530" y="250" width="210" height="90" as="geometry" />
        </mxCell>
        <mxCell id="AFRiotALi2OwxYS_yEGo-38" value="&lt;font style=&quot;font-size: 29px;&quot;&gt;Mengelola mapel&lt;/font&gt;" style="ellipse;whiteSpace=wrap;html=1;labelBackgroundColor=none;" vertex="1" parent="AFRiotALi2OwxYS_yEGo-1">
          <mxGeometry x="105" y="510" width="260" height="120" as="geometry" />
        </mxCell>
        <mxCell id="AFRiotALi2OwxYS_yEGo-36" value="&lt;font style=&quot;font-size: 29px;&quot;&gt;Mengelola ujian&lt;/font&gt;" style="ellipse;whiteSpace=wrap;html=1;labelBackgroundColor=none;" vertex="1" parent="AFRiotALi2OwxYS_yEGo-1">
          <mxGeometry x="810" y="1005" width="260" height="110" as="geometry" />
        </mxCell>
        <mxCell id="AFRiotALi2OwxYS_yEGo-37" value="&lt;font style=&quot;font-size: 29px;&quot;&gt;Mengelola modul&lt;/font&gt;" style="ellipse;whiteSpace=wrap;html=1;labelBackgroundColor=none;" vertex="1" parent="AFRiotALi2OwxYS_yEGo-1">
          <mxGeometry x="102.5" y="1080" width="262.5" height="120" as="geometry" />
        </mxCell>
        <mxCell id="AFRiotALi2OwxYS_yEGo-75" value="&lt;div style=&quot;text-align: justify;&quot;&gt;&lt;span style=&quot;font-size: 29px;&quot;&gt;&lt;b&gt;Mata Pelajaran&lt;/b&gt;&lt;/span&gt;&lt;/div&gt;" style="text;html=1;strokeColor=#2962D6;fillColor=#a9d2fe;align=center;verticalAlign=middle;whiteSpace=wrap;rounded=0;strokeWidth=3;" vertex="1" parent="AFRiotALi2OwxYS_yEGo-1">
          <mxGeometry x="110" y="160" width="230" height="70" as="geometry" />
        </mxCell>
        <mxCell id="AFRiotALi2OwxYS_yEGo-87" value="&lt;span style=&quot;font-size: 29px;&quot;&gt;&lt;b&gt;akun&lt;/b&gt;&lt;/span&gt;" style="text;html=1;strokeColor=#2962D6;fillColor=#a9d2fe;align=center;verticalAlign=middle;whiteSpace=wrap;rounded=0;strokeWidth=3;" vertex="1" parent="AFRiotALi2OwxYS_yEGo-1">
          <mxGeometry x="680" y="120" width="230" height="70" as="geometry" />
        </mxCell>
        <mxCell id="AFRiotALi2OwxYS_yEGo-88" value="&lt;span style=&quot;font-size: 29px;&quot;&gt;&lt;b&gt;ujian&lt;/b&gt;&lt;/span&gt;" style="text;html=1;strokeColor=#2962D6;fillColor=#a9d2fe;align=center;verticalAlign=middle;whiteSpace=wrap;rounded=0;strokeWidth=3;" vertex="1" parent="AFRiotALi2OwxYS_yEGo-1">
          <mxGeometry x="890" y="820" width="120" height="70" as="geometry" />
        </mxCell>
        <mxCell id="AFRiotALi2OwxYS_yEGo-90" value="&lt;span style=&quot;font-size: 29px;&quot;&gt;&lt;b&gt;modul&lt;/b&gt;&lt;/span&gt;" style="text;html=1;strokeColor=#2962D6;fillColor=#a9d2fe;align=center;verticalAlign=middle;whiteSpace=wrap;rounded=0;strokeWidth=3;" vertex="1" parent="AFRiotALi2OwxYS_yEGo-1">
          <mxGeometry x="152.5" y="800" width="145" height="70" as="geometry" />
        </mxCell>
        <mxCell id="AFRiotALi2OwxYS_yEGo-12" value="&lt;font style=&quot;font-size: 29px;&quot;&gt;Pelajar&lt;/font&gt;" style="shape=umlActor;verticalLabelPosition=bottom;verticalAlign=top;html=1;outlineConnect=0;labelBackgroundColor=none;strokeWidth=6;" vertex="1" parent="1">
          <mxGeometry x="-720" y="390" width="90" height="150" as="geometry" />
        </mxCell>
        <mxCell id="AFRiotALi2OwxYS_yEGo-31" value="&lt;font style=&quot;font-size: 29px;&quot;&gt;Pemateri&lt;/font&gt;" style="shape=umlActor;verticalLabelPosition=bottom;verticalAlign=top;html=1;outlineConnect=0;labelBackgroundColor=none;strokeWidth=3;" vertex="1" parent="1">
          <mxGeometry x="688.5" y="496.41" width="60" height="115" as="geometry" />
        </mxCell>
        <mxCell id="AFRiotALi2OwxYS_yEGo-93" value="" style="endArrow=classic;html=1;rounded=0;entryX=0.092;entryY=0.807;entryDx=0;entryDy=0;exitX=0.5;exitY=0.5;exitDx=0;exitDy=0;exitPerimeter=0;strokeWidth=2;entryPerimeter=0;" edge="1" parent="1" source="AFRiotALi2OwxYS_yEGo-12" target="AFRiotALi2OwxYS_yEGo-4">
          <mxGeometry width="50" height="50" relative="1" as="geometry">
            <mxPoint x="-230" y="490" as="sourcePoint" />
            <mxPoint x="-180" y="440" as="targetPoint" />
          </mxGeometry>
        </mxCell>
        <mxCell id="AFRiotALi2OwxYS_yEGo-94" value="" style="endArrow=classic;html=1;rounded=0;entryX=0.206;entryY=0.951;entryDx=0;entryDy=0;exitX=0.5;exitY=0.5;exitDx=0;exitDy=0;exitPerimeter=0;strokeWidth=2;entryPerimeter=0;" edge="1" parent="1" source="AFRiotALi2OwxYS_yEGo-12" target="AFRiotALi2OwxYS_yEGo-10">
          <mxGeometry width="50" height="50" relative="1" as="geometry">
            <mxPoint x="-615" y="475" as="sourcePoint" />
            <mxPoint x="-450" y="360" as="targetPoint" />
          </mxGeometry>
        </mxCell>
        <mxCell id="AFRiotALi2OwxYS_yEGo-95" value="" style="endArrow=classic;html=1;rounded=0;entryX=0.024;entryY=0.71;entryDx=0;entryDy=0;exitX=0.5;exitY=0.5;exitDx=0;exitDy=0;exitPerimeter=0;strokeWidth=2;entryPerimeter=0;" edge="1" parent="1" target="AFRiotALi2OwxYS_yEGo-7">
          <mxGeometry width="50" height="50" relative="1" as="geometry">
            <mxPoint x="-670" y="465" as="sourcePoint" />
            <mxPoint x="283.96113122630095" y="323.82453069221015" as="targetPoint" />
          </mxGeometry>
        </mxCell>
        <mxCell id="AFRiotALi2OwxYS_yEGo-97" value="" style="endArrow=classic;html=1;rounded=0;entryX=0;entryY=0.5;entryDx=0;entryDy=0;strokeWidth=2;exitX=0.5;exitY=0.5;exitDx=0;exitDy=0;exitPerimeter=0;" edge="1" parent="1" source="AFRiotALi2OwxYS_yEGo-12" target="AFRiotALi2OwxYS_yEGo-8">
          <mxGeometry width="50" height="50" relative="1" as="geometry">
            <mxPoint x="-630" y="465" as="sourcePoint" />
            <mxPoint x="289" y="334" as="targetPoint" />
          </mxGeometry>
        </mxCell>
        <mxCell id="AFRiotALi2OwxYS_yEGo-100" value="" style="endArrow=classic;html=1;rounded=0;entryX=0;entryY=0.5;entryDx=0;entryDy=0;strokeWidth=2;exitX=0.5;exitY=0.5;exitDx=0;exitDy=0;exitPerimeter=0;" edge="1" parent="1" source="AFRiotALi2OwxYS_yEGo-12" target="AFRiotALi2OwxYS_yEGo-2">
          <mxGeometry width="50" height="50" relative="1" as="geometry">
            <mxPoint x="-665" y="475" as="sourcePoint" />
            <mxPoint x="-40" y="475" as="targetPoint" />
          </mxGeometry>
        </mxCell>
        <mxCell id="AFRiotALi2OwxYS_yEGo-101" value="" style="endArrow=classic;html=1;rounded=0;entryX=-0.012;entryY=0.333;entryDx=0;entryDy=0;strokeWidth=2;exitX=0.5;exitY=0.5;exitDx=0;exitDy=0;exitPerimeter=0;entryPerimeter=0;" edge="1" parent="1" source="AFRiotALi2OwxYS_yEGo-12" target="AFRiotALi2OwxYS_yEGo-3">
          <mxGeometry width="50" height="50" relative="1" as="geometry">
            <mxPoint x="-665" y="475" as="sourcePoint" />
            <mxPoint x="-425" y="945" as="targetPoint" />
            <Array as="points">
              <mxPoint x="-390" y="630" />
            </Array>
          </mxGeometry>
        </mxCell>
        <mxCell id="AFRiotALi2OwxYS_yEGo-102" value="" style="endArrow=classic;html=1;rounded=0;entryX=0;entryY=0;entryDx=0;entryDy=0;strokeWidth=2;exitX=0.5;exitY=0.5;exitDx=0;exitDy=0;exitPerimeter=0;" edge="1" parent="1" source="AFRiotALi2OwxYS_yEGo-12" target="AFRiotALi2OwxYS_yEGo-5">
          <mxGeometry width="50" height="50" relative="1" as="geometry">
            <mxPoint x="-665" y="475" as="sourcePoint" />
            <mxPoint x="-48" y="733" as="targetPoint" />
            <Array as="points">
              <mxPoint x="-400" y="660" />
              <mxPoint x="-190" y="750" />
            </Array>
          </mxGeometry>
        </mxCell>
        <mxCell id="AFRiotALi2OwxYS_yEGo-104" value="" style="endArrow=classic;html=1;rounded=0;entryX=0.009;entryY=0.349;entryDx=0;entryDy=0;strokeWidth=2;exitX=0.5;exitY=0.5;exitDx=0;exitDy=0;exitPerimeter=0;entryPerimeter=0;" edge="1" parent="1" source="AFRiotALi2OwxYS_yEGo-12" target="AFRiotALi2OwxYS_yEGo-9">
          <mxGeometry width="50" height="50" relative="1" as="geometry">
            <mxPoint x="-665" y="475" as="sourcePoint" />
            <mxPoint x="-6" y="865" as="targetPoint" />
            <Array as="points">
              <mxPoint x="-410" y="680" />
              <mxPoint x="-190" y="780" />
            </Array>
          </mxGeometry>
        </mxCell>
        <mxCell id="AFRiotALi2OwxYS_yEGo-105" value="" style="endArrow=classic;html=1;rounded=0;entryX=0;entryY=0;entryDx=0;entryDy=0;strokeWidth=2;exitX=0.5;exitY=0.5;exitDx=0;exitDy=0;exitPerimeter=0;" edge="1" parent="1" source="AFRiotALi2OwxYS_yEGo-12" target="AFRiotALi2OwxYS_yEGo-6">
          <mxGeometry width="50" height="50" relative="1" as="geometry">
            <mxPoint x="-665" y="475" as="sourcePoint" />
            <mxPoint x="-425" y="970" as="targetPoint" />
            <Array as="points">
              <mxPoint x="-590" y="1290" />
            </Array>
          </mxGeometry>
        </mxCell>
        <mxCell id="AFRiotALi2OwxYS_yEGo-110" value="" style="endArrow=classic;html=1;rounded=0;entryX=1;entryY=0.5;entryDx=0;entryDy=0;strokeWidth=2;" edge="1" parent="1" target="AFRiotALi2OwxYS_yEGo-8">
          <mxGeometry width="50" height="50" relative="1" as="geometry">
            <mxPoint x="710" y="550" as="sourcePoint" />
            <mxPoint x="495" y="470" as="targetPoint" />
          </mxGeometry>
        </mxCell>
        <mxCell id="AFRiotALi2OwxYS_yEGo-111" value="" style="endArrow=classic;html=1;rounded=0;entryX=0.977;entryY=0.693;entryDx=0;entryDy=0;strokeWidth=2;entryPerimeter=0;exitX=0.5;exitY=0.5;exitDx=0;exitDy=0;exitPerimeter=0;" edge="1" parent="1" source="AFRiotALi2OwxYS_yEGo-31" target="AFRiotALi2OwxYS_yEGo-10">
          <mxGeometry width="50" height="50" relative="1" as="geometry">
            <mxPoint x="720" y="560" as="sourcePoint" />
            <mxPoint x="70" y="520" as="targetPoint" />
          </mxGeometry>
        </mxCell>
        <mxCell id="AFRiotALi2OwxYS_yEGo-113" value="" style="endArrow=classic;html=1;rounded=0;entryX=0.937;entryY=0.798;entryDx=0;entryDy=0;strokeWidth=2;exitX=0.5;exitY=0.5;exitDx=0;exitDy=0;exitPerimeter=0;entryPerimeter=0;" edge="1" parent="1" source="AFRiotALi2OwxYS_yEGo-31" target="AFRiotALi2OwxYS_yEGo-7">
          <mxGeometry width="50" height="50" relative="1" as="geometry">
            <mxPoint x="728.5" y="587.41" as="sourcePoint" />
            <mxPoint x="492.5" y="330.00000000000017" as="targetPoint" />
          </mxGeometry>
        </mxCell>
        <mxCell id="AFRiotALi2OwxYS_yEGo-123" value="" style="endArrow=classic;html=1;rounded=0;strokeWidth=2;" edge="1" parent="1" target="AFRiotALi2OwxYS_yEGo-38">
          <mxGeometry width="50" height="50" relative="1" as="geometry">
            <mxPoint x="720" y="550" as="sourcePoint" />
            <mxPoint x="148" y="507" as="targetPoint" />
          </mxGeometry>
        </mxCell>
        <mxCell id="AFRiotALi2OwxYS_yEGo-125" value="" style="endArrow=classic;html=1;rounded=0;strokeWidth=2;entryX=0.917;entryY=0.221;entryDx=0;entryDy=0;entryPerimeter=0;exitX=0.5;exitY=0;exitDx=0;exitDy=0;exitPerimeter=0;" edge="1" parent="1" source="AFRiotALi2OwxYS_yEGo-31" target="AFRiotALi2OwxYS_yEGo-4">
          <mxGeometry width="50" height="50" relative="1" as="geometry">
            <mxPoint x="730" y="560" as="sourcePoint" />
            <mxPoint x="-200" y="250" as="targetPoint" />
            <Array as="points">
              <mxPoint x="720" y="-80" />
              <mxPoint x="-210" y="-80" />
            </Array>
          </mxGeometry>
        </mxCell>
      </root>
    </mxGraphModel>
  </diagram>
</mxfile>
